<?xml version="1.0" standalone="no"?>
<!DOCTYPE svg PUBLIC "-//W3C//DTD SVG 20010904//EN"
 "http://www.w3.org/TR/2001/REC-SVG-20010904/DTD/svg10.dtd">
<svg version="1.0" xmlns="http://www.w3.org/2000/svg"
 width="480.000000pt" height="480.000000pt" viewBox="0 0 480.000000 480.000000"
 preserveAspectRatio="xMidYMid meet">
<metadata>
Created by potrace 1.14, written by Peter Selinger 2001-2017
</metadata>
<g transform="translate(0.000000,480.000000) scale(0.100000,-0.100000)"
fill="#000000" stroke="none">
<path d="M170 3314 c0 -20 39 -30 118 -29 45 1 82 -3 82 -8 0 -4 6 -5 12 -1
18 11 48 12 48 2 0 -5 5 -6 11 -2 8 5 8 9 -1 14 -8 5 -8 10 -2 14 11 7 25 -21
17 -34 -3 -4 4 -6 15 -3 16 4 18 8 9 19 -7 8 -9 17 -5 21 3 3 6 1 6 -5 0 -6 8
-9 18 -6 10 4 13 2 7 -3 -15 -12 -17 -34 -3 -31 7 1 23 -3 36 -10 13 -8 22 -9
22 -3 0 6 -9 15 -20 21 -11 6 -20 16 -19 23 0 9 2 9 6 -1 2 -6 8 -10 12 -7 5
2 14 -7 22 -21 7 -14 22 -30 32 -36 17 -8 18 -7 13 14 -4 17 -2 15 8 -6 9 -20
15 -25 19 -15 5 12 7 12 17 -1 9 -12 11 -10 7 12 -2 15 0 25 4 22 5 -3 9 -15
9 -26 0 -20 1 -21 20 -3 11 10 20 15 20 10 0 -4 6 -2 14 4 8 6 18 11 22 9 19
-5 54 14 48 25 -5 9 -4 9 5 1 8 -8 25 -9 48 -4 19 5 42 6 49 3 8 -3 14 -1 14
4 0 5 7 10 15 10 8 0 12 -4 9 -9 -3 -4 -1 -8 5 -8 5 0 13 5 17 11 4 8 9 7 14
-2 7 -10 11 -10 24 0 9 8 16 9 16 5 0 -5 20 -9 44 -10 29 0 43 4 39 10 -3 6 0
5 8 -1 16 -16 33 -17 23 -1 -5 8 -3 8 7 2 8 -5 39 -9 69 -9 l55 0 0 -103 c0
-56 3 -102 6 -102 4 0 13 10 21 23 10 15 14 52 14 122 l-1 100 -220 2 c-153 1
-224 -2 -234 -10 -12 -9 -13 -9 -7 1 4 6 2 12 -3 12 -6 0 -11 -5 -11 -11 0 -5
-3 -8 -8 -5 -4 2 -32 -2 -62 -11 -94 -25 -122 -26 -175 -3 -49 21 -196 39
-165 20 8 -5 12 -12 8 -15 -3 -3 -12 0 -19 7 -15 14 -81 19 -73 6 3 -4 0 -8
-5 -8 -6 0 -11 4 -11 9 0 5 -24 8 -54 7 -43 -1 -52 -4 -48 -16 4 -11 -1 -10
-16 4 -12 11 -22 15 -22 10z m135 -16 c3 -2 -13 -4 -34 -4 -22 1 -42 4 -45 7
-3 3 12 5 34 4 22 -1 42 -4 45 -7z m70 2 c3 -6 -1 -7 -9 -4 -18 7 -21 14 -7
14 6 0 13 -4 16 -10z m405 -14 c0 -2 -7 -9 -15 -16 -13 -11 -14 -10 -9 4 5 14
24 23 24 12z m-66 -24 c3 -5 -1 -9 -9 -9 -8 0 -12 4 -9 9 3 4 7 8 9 8 2 0 6
-4 9 -8z"/>
<path d="M1604 3242 c-13 -30 -24 -56 -24 -58 0 -1 -13 -31 -29 -66 -16 -35
-50 -112 -76 -173 -26 -60 -60 -138 -76 -173 -16 -35 -29 -66 -29 -68 0 -3
-11 -30 -25 -60 -14 -30 -37 -82 -51 -117 -14 -34 -39 -90 -55 -125 -16 -35
-29 -65 -29 -68 0 -2 -9 -23 -19 -47 -38 -85 -49 -78 119 -76 106 0 150 4 150
12 0 14 44 125 54 134 3 3 6 14 6 24 0 9 6 19 13 21 26 8 458 1 466 -8 5 -5
24 -48 42 -96 l34 -88 146 0 c80 0 148 3 152 6 3 3 -5 29 -18 58 -28 61 -50
111 -100 231 -43 105 -55 133 -84 197 -12 26 -21 49 -21 52 0 3 -11 29 -24 58
-21 48 -37 85 -41 98 -4 12 -28 67 -40 95 -8 16 -39 88 -69 160 l-55 130 -146
0 -147 1 -24 -54z m179 -274 c2 -13 32 -93 66 -178 33 -85 61 -158 61 -162 0
-5 -66 -8 -146 -8 -135 0 -146 1 -141 18 7 22 51 138 68 177 7 17 13 32 14 35
1 3 7 19 14 35 7 17 14 35 15 40 8 29 27 65 35 65 5 0 11 -10 14 -22z"/>
<path d="M2479 3280 c0 -8 -1 -252 -2 -543 l-2 -528 145 3 144 3 0 148 0 147
106 0 106 0 80 -150 79 -150 158 0 c86 0 157 2 157 5 0 14 -25 55 -33 55 -6 0
-8 3 -4 6 3 3 -1 13 -10 22 -8 10 -50 73 -93 141 l-79 124 41 30 c22 16 51 41
64 56 31 34 73 122 77 158 2 16 6 33 9 38 9 16 1 137 -12 185 -19 73 -97 180
-130 180 -6 0 -10 4 -10 9 0 10 -81 46 -130 57 -19 4 -42 9 -50 12 -8 2 -149
4 -312 6 -262 1 -298 0 -299 -14z m609 -244 c56 -38 69 -83 60 -194 -1 -7 -18
-30 -39 -51 -27 -28 -49 -41 -80 -46 -67 -12 -119 -13 -119 -2 0 6 -5 6 -12 0
-15 -10 -114 -10 -125 1 -9 8 -13 305 -5 319 2 5 66 7 142 5 132 -3 138 -4
178 -32z"/>
<path d="M3990 3286 c-6 -6 -10 -13 -10 -18 0 -4 -12 -33 -26 -65 -14 -32 -29
-67 -34 -78 -4 -11 -17 -40 -28 -65 -11 -25 -28 -63 -37 -85 -25 -58 -31 -72
-70 -159 -19 -43 -35 -85 -35 -92 0 -8 -4 -14 -10 -14 -5 0 -12 -16 -16 -35
-3 -19 -10 -35 -15 -35 -5 0 -9 -6 -9 -14 0 -7 -10 -35 -22 -62 -12 -27 -21
-52 -20 -56 1 -5 -2 -8 -7 -8 -5 0 -12 -11 -15 -24 -3 -13 -20 -55 -37 -92
-17 -38 -31 -71 -31 -74 0 -3 -9 -22 -19 -42 -10 -21 -19 -42 -19 -48 0 -6 51
-10 144 -10 l144 0 38 95 c24 58 45 95 54 96 18 1 430 1 447 0 6 -1 28 -44 48
-96 l37 -96 147 2 c80 0 150 3 154 6 4 3 4 10 -1 16 -6 7 -22 41 -37 77 -15
36 -35 81 -43 100 -9 19 -16 37 -17 40 0 3 -7 16 -15 30 -7 14 -13 26 -12 28
1 1 -5 19 -14 40 -8 20 -37 89 -64 152 -27 63 -56 133 -66 155 -10 22 -18 45
-20 50 -1 6 -13 35 -27 65 -13 30 -50 116 -81 191 l-57 135 -145 0 c-80 -1
-149 -5 -154 -10z m172 -351 c10 -28 27 -72 37 -100 11 -27 33 -87 50 -133
l31 -83 -87 1 c-49 1 -92 0 -98 -1 -5 -1 -14 -1 -19 0 -4 1 -27 2 -51 3 l-43
0 38 97 c21 53 45 114 55 136 9 22 18 49 21 59 2 11 9 23 15 26 6 4 10 10 10
14 -7 54 16 43 41 -19z"/>
<path d="M123 3262 l-73 -3 0 -107 0 -108 83 1 c45 1 88 -3 95 -8 7 -6 12 -6
12 0 0 10 34 10 120 -2 88 -11 128 -39 135 -92 2 -15 4 -190 4 -388 l1 -360
147 0 147 0 1 370 c1 364 5 412 35 430 20 12 21 -1 3 -36 -15 -29 -17 -76 -17
-387 -1 -195 2 -358 5 -364 4 -7 9 -6 13 1 4 6 12 9 17 6 5 -4 10 0 10 7 6 57
2 778 -3 778 -20 0 -5 19 20 25 52 14 78 16 222 18 l144 3 1 107 0 108 -196
-1 c-108 -1 -214 -6 -235 -12 -22 -5 -49 -11 -61 -12 -11 0 -19 -4 -16 -8 4
-7 -20 -12 -39 -9 -5 0 -8 -4 -8 -10 0 -15 -103 -4 -108 11 -2 6 -7 8 -12 5
-4 -3 -24 2 -43 10 -55 23 -225 34 -404 27z"/>
<path d="M504 2078 c-6 -10 -6 -307 0 -317 4 -6 44 -7 81 -2 11 1 12 307 1
319 -10 9 -76 10 -82 0z"/>
<path d="M660 1920 l0 -166 33 1 c51 1 54 8 53 95 -1 55 3 81 12 85 6 2 12 0
12 -4 0 -9 22 -37 105 -137 29 -34 40 -41 70 -40 45 1 45 1 42 185 l-2 145
-42 1 -43 1 0 -99 0 -100 -30 39 c-118 151 -127 159 -171 159 l-39 0 0 -165z"/>
<path d="M1039 2075 c0 -5 -2 -19 -4 -30 -5 -26 11 -35 63 -35 42 0 43 -1 42
-32 0 -18 0 -49 1 -68 0 -19 0 -39 -1 -45 -2 -10 -1 -83 2 -100 1 -6 21 -11
45 -11 31 0 43 5 44 16 0 8 1 65 1 127 l1 112 51 3 51 3 0 35 0 35 -147 0
c-93 0 -148 -3 -149 -10z"/>
<path d="M1381 2060 c0 -14 0 -29 -1 -35 -2 -9 -2 -27 1 -115 1 -19 0 -38 -1
-42 -4 -20 -3 -75 3 -93 7 -19 15 -20 138 -20 134 0 149 5 143 43 -1 6 -2 15
-3 20 0 4 -38 7 -83 7 -97 -2 -108 1 -108 25 0 29 21 37 98 35 49 -1 71 2 69
9 -3 6 0 19 4 28 13 25 -6 32 -91 32 -73 1 -75 2 -76 26 -1 14 2 27 7 30 5 3
46 5 93 5 l84 -1 -2 35 -1 36 -138 0 -138 0 2 -25z"/>
<path d="M1718 2066 c-2 -12 -1 -33 3 -48 4 -15 4 -30 0 -32 -6 -4 -7 -72 -1
-86 1 -3 1 -9 0 -15 -2 -11 -3 -65 -1 -106 1 -23 5 -25 41 -24 49 1 54 7 55
53 0 34 2 37 30 37 31 0 56 -14 48 -27 -2 -5 -1 -8 4 -8 4 0 14 -13 21 -29 12
-26 17 -29 57 -26 25 1 47 4 50 7 3 3 -4 16 -15 31 -11 14 -20 30 -20 36 0 6
-4 11 -10 11 -18 0 -10 24 15 49 14 13 25 28 26 35 0 6 2 22 3 36 5 41 -14 78
-51 101 -30 19 -51 22 -144 23 -102 2 -108 1 -111 -18z m201 -62 c39 -41 6
-92 -56 -88 -21 1 -41 2 -45 3 -7 1 -9 81 -2 92 5 9 94 3 103 -7z"/>
<path d="M2100 2082 c-12 -2 -15 -18 -13 -75 1 -39 2 -113 2 -163 l1 -91 43 1
44 1 -2 88 c-1 48 2 87 7 87 11 0 48 -38 48 -49 0 -5 3 -11 8 -13 4 -1 28 -28
54 -59 40 -48 51 -55 80 -53 18 1 35 2 38 3 3 0 6 73 6 161 0 124 -3 160 -13
161 -7 1 -25 2 -40 3 l-28 1 -3 -92 c-1 -51 -7 -93 -12 -93 -6 0 -10 4 -10 8
0 5 -8 17 -18 28 -10 10 -41 48 -70 84 -51 64 -69 73 -122 62z"/>
<path d="M2593 2065 c-10 -12 -19 -28 -21 -36 -2 -8 -17 -42 -33 -75 -16 -34
-29 -67 -29 -73 0 -6 -4 -11 -10 -11 -5 0 -10 -6 -10 -13 0 -7 -9 -32 -20 -55
-11 -22 -20 -43 -20 -45 0 -2 21 -3 46 -2 44 1 64 14 64 43 0 12 9 13 105 16
46 1 51 -1 65 -29 13 -27 20 -30 63 -30 26 -1 47 0 47 1 0 2 -88 201 -113 254
-11 25 -21 48 -21 52 -2 15 -18 21 -55 23 -30 1 -45 -3 -58 -20z m72 -117 c7
-18 11 -36 9 -40 -3 -5 0 -8 7 -8 20 0 -4 -20 -29 -25 -12 -2 -24 1 -27 6 -4
5 -11 6 -17 3 -6 -4 -8 -1 -5 7 3 8 11 31 18 52 15 46 26 47 44 5z"/>
<path d="M2814 2081 c-2 -2 -4 -20 -4 -39 l0 -34 50 4 c28 2 51 -1 51 -7 1 -5
3 -59 4 -120 1 -60 3 -115 4 -122 1 -7 17 -10 44 -9 l42 3 2 122 c1 68 4 126
8 129 3 3 25 5 49 3 42 -2 44 -1 48 29 3 17 0 34 -6 38 -12 7 -284 10 -292 3z"/>
<path d="M3152 1921 l3 -166 35 -1 c19 -1 40 2 45 7 12 9 12 305 1 317 -4 4
-25 7 -47 8 l-39 0 2 -165z"/>
<path d="M3391 2074 c-64 -32 -107 -99 -102 -159 4 -41 7 -51 29 -87 44 -71
169 -100 251 -58 70 35 111 109 97 175 -3 11 -5 25 -5 32 -2 23 -57 77 -98 95
-48 21 -132 22 -172 2z m146 -76 c6 -5 18 -24 27 -43 44 -93 -79 -174 -152
-101 -49 48 -22 147 42 159 26 5 67 -3 83 -15z"/>
<path d="M3719 2086 c-4 -2 -5 -312 -2 -322 4 -11 68 -13 79 -1 4 4 7 45 6 91
0 69 2 84 14 79 8 -3 14 -9 14 -13 0 -5 18 -28 40 -52 22 -23 40 -46 40 -50 0
-4 13 -21 30 -36 22 -21 38 -28 67 -27 l37 1 0 164 0 164 -42 1 c-23 0 -42 -3
-43 -7 -1 -4 -2 -44 -4 -88 -1 -44 -3 -83 -4 -87 -1 -8 -41 33 -41 42 0 3 -10
16 -22 29 -35 36 -58 65 -58 74 0 14 -45 36 -77 37 -18 1 -34 1 -34 1z"/>
<path d="M4220 2079 c0 -4 -17 -45 -39 -91 -81 -173 -101 -220 -96 -228 2 -4
21 -6 41 -5 34 1 57 18 67 48 2 6 35 10 76 10 67 -1 85 -5 87 -21 4 -36 34
-45 106 -33 9 1 -14 61 -24 61 -4 0 -8 5 -8 12 0 13 -30 81 -80 183 l-35 70
-47 1 c-27 0 -48 -3 -48 -7z m70 -131 c23 -48 27 -83 8 -72 -7 5 -27 7 -44 5
l-32 -2 22 55 c11 31 22 56 23 56 2 0 12 -19 23 -42z"/>
<path d="M4509 2086 c-1 -1 -2 -75 -3 -166 l-2 -165 116 1 c63 1 118 2 121 3
3 0 6 16 5 34 l-1 32 -70 3 c-38 2 -71 5 -73 7 -8 7 -8 176 -1 181 5 3 4 15
-1 28 -5 13 -6 27 -3 30 4 3 2 6 -3 7 -14 2 -84 5 -85 5z"/>
</g>
</svg>
